<svg width="512" height="512" viewBox="0 0 512 512" fill="none" xmlns="http://www.w3.org/2000/svg">
<path fill-rule="evenodd" clip-rule="evenodd" d="M300.722 1.86346e-05H360.094C380.431 -0.000445365 397.541 -0.000843059 411.546 1.14962C426.197 2.35301 440.152 4.96852 453.408 11.7589C473.6 22.1022 490.016 38.6066 500.304 58.9066C507.059 72.2334 509.66 86.2632 510.857 100.992C512.002 115.073 512.001 132.275 512.001 152.721V209.336C512.001 229.782 512.002 246.983 510.857 261.065C509.66 275.793 507.059 289.823 500.304 303.15C490.016 323.45 473.6 339.954 453.408 350.298C440.152 357.088 426.197 359.704 411.546 360.907C397.54 362.057 380.43 362.057 360.094 362.057H182.792C170.338 362.057 159.1 354.545 154.281 342.999C149.462 331.454 152.003 318.129 160.728 309.194L307.144 159.251L351.273 202.805L256.476 299.885H358.855C380.757 299.885 395.323 299.861 406.511 298.942C417.337 298.053 422.248 296.483 425.333 294.903C433.889 290.52 440.845 283.527 445.204 274.925C446.776 271.823 448.338 266.886 449.222 256.002C450.136 244.755 450.16 230.11 450.16 208.091V153.965C450.16 131.947 450.136 117.302 449.222 106.055C448.338 95.1707 446.776 90.2334 445.204 87.1318C440.845 78.5301 433.889 71.5367 425.333 67.1539C422.248 65.5736 417.337 64.0037 406.511 63.1145C395.324 62.1955 380.757 62.1714 358.855 62.1714H301.97C279.829 62.1714 265.092 62.1958 253.782 63.1294C242.829 64.0336 237.878 65.63 234.782 67.2301C226.175 71.6792 219.204 78.7732 214.884 87.4802C213.33 90.6117 211.803 95.6086 211.037 106.63C210.246 118.012 210.402 132.826 210.672 155.085L210.982 180.649L149.146 181.407L148.821 154.588C148.57 133.914 148.359 116.531 149.347 102.299C150.381 87.4201 152.848 73.2297 159.546 59.7289C169.742 39.1804 186.193 22.4385 206.506 11.9387C219.852 5.0401 233.936 2.38717 248.721 1.16664C262.865 -0.000846669 280.157 -0.000449047 300.722 1.86346e-05Z" fill="url(#paint0_linear_126_678)"/>
<path fill-rule="evenodd" clip-rule="evenodd" d="M300.722 1.86346e-05H360.094C380.431 -0.000445365 397.541 -0.000843059 411.546 1.14962C426.197 2.35301 440.152 4.96852 453.408 11.7589C473.6 22.1022 490.016 38.6066 500.304 58.9066C507.059 72.2334 509.66 86.2632 510.857 100.992C512.002 115.073 512.001 132.275 512.001 152.721V209.336C512.001 229.782 512.002 246.983 510.857 261.065C509.66 275.793 507.059 289.823 500.304 303.15C490.016 323.45 473.6 339.954 453.408 350.298C440.152 357.088 426.197 359.704 411.546 360.907C397.54 362.057 380.43 362.057 360.094 362.057H182.792C170.338 362.057 159.1 354.545 154.281 342.999C149.462 331.454 152.003 318.129 160.728 309.194L307.144 159.251L351.273 202.805L256.476 299.885H358.855C380.757 299.885 395.323 299.861 406.511 298.942C417.337 298.053 422.248 296.483 425.333 294.903C433.889 290.52 440.845 283.527 445.204 274.925C446.776 271.823 448.338 266.886 449.222 256.002C450.136 244.755 450.16 230.11 450.16 208.091V153.965C450.16 131.947 450.136 117.302 449.222 106.055C448.338 95.1707 446.776 90.2334 445.204 87.1318C440.845 78.5301 433.889 71.5367 425.333 67.1539C422.248 65.5736 417.337 64.0037 406.511 63.1145C395.324 62.1955 380.757 62.1714 358.855 62.1714H301.97C279.829 62.1714 265.092 62.1958 253.782 63.1294C242.829 64.0336 237.878 65.63 234.782 67.2301C226.175 71.6792 219.204 78.7732 214.884 87.4802C213.33 90.6117 211.803 95.6086 211.037 106.63C210.246 118.012 210.402 132.826 210.672 155.085L210.982 180.649L149.146 181.407L148.821 154.588C148.57 133.914 148.359 116.531 149.347 102.299C150.381 87.4201 152.848 73.2297 159.546 59.7289C169.742 39.1804 186.193 22.4385 206.506 11.9387C219.852 5.0401 233.936 2.38717 248.721 1.16664C262.865 -0.000846669 280.157 -0.000449047 300.722 1.86346e-05Z" fill="url(#paint1_radial_126_678)"/>
<path fill-rule="evenodd" clip-rule="evenodd" d="M300.722 1.86346e-05H360.094C380.431 -0.000445365 397.541 -0.000843059 411.546 1.14962C426.197 2.35301 440.152 4.96852 453.408 11.7589C473.6 22.1022 490.016 38.6066 500.304 58.9066C507.059 72.2334 509.66 86.2632 510.857 100.992C512.002 115.073 512.001 132.275 512.001 152.721V209.336C512.001 229.782 512.002 246.983 510.857 261.065C509.66 275.793 507.059 289.823 500.304 303.15C490.016 323.45 473.6 339.954 453.408 350.298C440.152 357.088 426.197 359.704 411.546 360.907C397.54 362.057 380.43 362.057 360.094 362.057H182.792C170.338 362.057 159.1 354.545 154.281 342.999C149.462 331.454 152.003 318.129 160.728 309.194L307.144 159.251L351.273 202.805L256.476 299.885H358.855C380.757 299.885 395.323 299.861 406.511 298.942C417.337 298.053 422.248 296.483 425.333 294.903C433.889 290.52 440.845 283.527 445.204 274.925C446.776 271.823 448.338 266.886 449.222 256.002C450.136 244.755 450.16 230.11 450.16 208.091V153.965C450.16 131.947 450.136 117.302 449.222 106.055C448.338 95.1707 446.776 90.2334 445.204 87.1318C440.845 78.5301 433.889 71.5367 425.333 67.1539C422.248 65.5736 417.337 64.0037 406.511 63.1145C395.324 62.1955 380.757 62.1714 358.855 62.1714H301.97C279.829 62.1714 265.092 62.1958 253.782 63.1294C242.829 64.0336 237.878 65.63 234.782 67.2301C226.175 71.6792 219.204 78.7732 214.884 87.4802C213.33 90.6117 211.803 95.6086 211.037 106.63C210.246 118.012 210.402 132.826 210.672 155.085L210.982 180.649L149.146 181.407L148.821 154.588C148.57 133.914 148.359 116.531 149.347 102.299C150.381 87.4201 152.848 73.2297 159.546 59.7289C169.742 39.1804 186.193 22.4385 206.506 11.9387C219.852 5.0401 233.936 2.38717 248.721 1.16664C262.865 -0.000846669 280.157 -0.000449047 300.722 1.86346e-05Z" fill="url(#paint2_radial_126_678)"/>
<path fill-rule="evenodd" clip-rule="evenodd" d="M300.722 1.86346e-05H360.094C380.431 -0.000445365 397.541 -0.000843059 411.546 1.14962C426.197 2.35301 440.152 4.96852 453.408 11.7589C473.6 22.1022 490.016 38.6066 500.304 58.9066C507.059 72.2334 509.66 86.2632 510.857 100.992C512.002 115.073 512.001 132.275 512.001 152.721V209.336C512.001 229.782 512.002 246.983 510.857 261.065C509.66 275.793 507.059 289.823 500.304 303.15C490.016 323.45 473.6 339.954 453.408 350.298C440.152 357.088 426.197 359.704 411.546 360.907C397.54 362.057 380.43 362.057 360.094 362.057H182.792C170.338 362.057 159.1 354.545 154.281 342.999C149.462 331.454 152.003 318.129 160.728 309.194L307.144 159.251L351.273 202.805L256.476 299.885H358.855C380.757 299.885 395.323 299.861 406.511 298.942C417.337 298.053 422.248 296.483 425.333 294.903C433.889 290.52 440.845 283.527 445.204 274.925C446.776 271.823 448.338 266.886 449.222 256.002C450.136 244.755 450.16 230.11 450.16 208.091V153.965C450.16 131.947 450.136 117.302 449.222 106.055C448.338 95.1707 446.776 90.2334 445.204 87.1318C440.845 78.5301 433.889 71.5367 425.333 67.1539C422.248 65.5736 417.337 64.0037 406.511 63.1145C395.324 62.1955 380.757 62.1714 358.855 62.1714H301.97C279.829 62.1714 265.092 62.1958 253.782 63.1294C242.829 64.0336 237.878 65.63 234.782 67.2301C226.175 71.6792 219.204 78.7732 214.884 87.4802C213.33 90.6117 211.803 95.6086 211.037 106.63C210.246 118.012 210.402 132.826 210.672 155.085L210.982 180.649L149.146 181.407L148.821 154.588C148.57 133.914 148.359 116.531 149.347 102.299C150.381 87.4201 152.848 73.2297 159.546 59.7289C169.742 39.1804 186.193 22.4385 206.506 11.9387C219.852 5.0401 233.936 2.38717 248.721 1.16664C262.865 -0.000846669 280.157 -0.000449047 300.722 1.86346e-05Z" fill="url(#paint3_radial_126_678)"/>
<path fill-rule="evenodd" clip-rule="evenodd" d="M105.491 448.886C116.678 449.804 131.245 449.829 153.146 449.829H210.985C230.956 449.829 244.237 449.808 254.468 449.041C264.383 448.296 268.93 446.978 271.778 445.665C281.672 441.102 289.609 433.122 294.148 423.175C295.454 420.313 296.765 415.741 297.505 405.773C298.269 395.488 298.289 382.135 298.289 362.057H360.129L360.129 363.192C360.13 381.837 360.13 397.525 359.174 410.402C358.175 423.856 356.007 436.714 350.356 449.098C339.644 472.573 320.912 491.406 297.563 502.174C285.244 507.856 272.455 510.035 259.072 511.039C246.264 512.001 230.659 512 212.113 512L151.907 512C131.571 512 114.461 512.001 100.455 510.85C85.8045 509.647 71.8493 507.031 58.5935 500.241C38.4017 489.898 21.9852 473.393 11.6969 453.093C4.94272 439.767 2.34116 425.737 1.14417 411.008C-0.000183105 396.927 0.000244141 379.725 0.000701904 359.279V302.664C0.000244141 282.218 -0.000183105 265.017 1.14417 250.935C2.34116 236.207 4.94275 222.177 11.6969 208.85C21.9852 188.55 38.4017 172.046 58.5935 161.702C71.8493 154.912 85.8045 152.296 100.455 151.093C114.461 149.943 131.571 149.943 151.908 149.943H329.209C346.286 149.943 360.129 163.861 360.129 181.029C360.129 198.197 346.286 212.115 329.209 212.115H153.146C131.245 212.115 116.678 212.139 105.491 213.058C94.6645 213.947 89.7535 215.517 86.6684 217.097C78.1125 221.48 71.1564 228.473 66.7969 237.075C65.225 240.177 63.6635 245.114 62.779 255.998C61.865 267.245 61.8409 281.89 61.8409 303.909V358.035C61.8409 380.053 61.865 394.698 62.779 405.945C63.6635 416.829 65.225 421.767 66.7969 424.868C71.1564 433.47 78.1125 440.463 86.6684 444.846C89.7535 446.426 94.6645 447.996 105.491 448.886Z" fill="url(#paint4_linear_126_678)"/>
<path fill-rule="evenodd" clip-rule="evenodd" d="M105.491 448.886C116.678 449.804 131.245 449.829 153.146 449.829H210.985C230.956 449.829 244.237 449.808 254.468 449.041C264.383 448.296 268.93 446.978 271.778 445.665C281.672 441.102 289.609 433.122 294.148 423.175C295.454 420.313 296.765 415.741 297.505 405.773C298.269 395.488 298.289 382.135 298.289 362.057H360.129L360.129 363.192C360.13 381.837 360.13 397.525 359.174 410.402C358.175 423.856 356.007 436.714 350.356 449.098C339.644 472.573 320.912 491.406 297.563 502.174C285.244 507.856 272.455 510.035 259.072 511.039C246.264 512.001 230.659 512 212.113 512L151.907 512C131.571 512 114.461 512.001 100.455 510.85C85.8045 509.647 71.8493 507.031 58.5935 500.241C38.4017 489.898 21.9852 473.393 11.6969 453.093C4.94272 439.767 2.34116 425.737 1.14417 411.008C-0.000183105 396.927 0.000244141 379.725 0.000701904 359.279V302.664C0.000244141 282.218 -0.000183105 265.017 1.14417 250.935C2.34116 236.207 4.94275 222.177 11.6969 208.85C21.9852 188.55 38.4017 172.046 58.5935 161.702C71.8493 154.912 85.8045 152.296 100.455 151.093C114.461 149.943 131.571 149.943 151.908 149.943H329.209C346.286 149.943 360.129 163.861 360.129 181.029C360.129 198.197 346.286 212.115 329.209 212.115H153.146C131.245 212.115 116.678 212.139 105.491 213.058C94.6645 213.947 89.7535 215.517 86.6684 217.097C78.1125 221.48 71.1564 228.473 66.7969 237.075C65.225 240.177 63.6635 245.114 62.779 255.998C61.865 267.245 61.8409 281.89 61.8409 303.909V358.035C61.8409 380.053 61.865 394.698 62.779 405.945C63.6635 416.829 65.225 421.767 66.7969 424.868C71.1564 433.47 78.1125 440.463 86.6684 444.846C89.7535 446.426 94.6645 447.996 105.491 448.886Z" fill="url(#paint5_radial_126_678)"/>
<defs>
<linearGradient id="paint0_linear_126_678" x1="243.958" y1="359.245" x2="248.052" y2="-0.461553" gradientUnits="userSpaceOnUse">
<stop offset="0.43118" stop-color="#498FFD"/>
<stop offset="1" stop-color="#16D1D6"/>
</linearGradient>
<radialGradient id="paint1_radial_126_678" cx="0" cy="0" r="1" gradientUnits="userSpaceOnUse" gradientTransform="translate(144.322 109.62) rotate(-15.4951) scale(233.594 232.186)">
<stop stop-color="#18CFD7"/>
<stop offset="1" stop-color="#18CFD7" stop-opacity="0"/>
</radialGradient>
<radialGradient id="paint2_radial_126_678" cx="0" cy="0" r="1" gradientUnits="userSpaceOnUse" gradientTransform="translate(280.86 212.407) rotate(152.477) scale(87.3844 86.9874)">
<stop stop-color="#4990FE"/>
<stop offset="0.353962" stop-color="#4990FE"/>
<stop offset="1" stop-color="#4990FE" stop-opacity="0"/>
</radialGradient>
<radialGradient id="paint3_radial_126_678" cx="0" cy="0" r="1" gradientUnits="userSpaceOnUse" gradientTransform="translate(173.843 329.878) rotate(-45.7892) scale(158.765 158.542)">
<stop stop-color="#4990FE"/>
<stop offset="0.405688" stop-color="#4990FE"/>
<stop offset="1" stop-color="#4990FE" stop-opacity="0"/>
</radialGradient>
<linearGradient id="paint4_linear_126_678" x1="362.045" y1="513.426" x2="363.362" y2="146.335" gradientUnits="userSpaceOnUse">
<stop stop-color="#2950FF"/>
<stop offset="0.821717" stop-color="#498FFD"/>
</linearGradient>
<radialGradient id="paint5_radial_126_678" cx="0" cy="0" r="1" gradientUnits="userSpaceOnUse" gradientTransform="translate(362.045 359.246) rotate(129.437) scale(156.852 155.361)">
<stop offset="0.337169" stop-color="#2950FF"/>
<stop offset="0.792226" stop-color="#2950FF" stop-opacity="0"/>
</radialGradient>
</defs>
</svg>
