<svg width="18" height="18" viewBox="0 0 18 18" fill="none" xmlns="http://www.w3.org/2000/svg">
<g clip-path="url(#clip0_813_3613)">
<path d="M17.7766 10.6824L16.3841 9.44926C16.3841 9.37305 16.3702 8.44472 16.3633 8.37544C16.3633 8.37544 17.735 7.1007 17.7419 7.09378C17.9082 6.87208 18.0191 6.62268 17.9151 6.35249C17.8251 6.03381 17.7142 5.7082 17.5549 5.34102C17.4094 5.00155 17.2362 4.66209 17.0422 4.32955C16.9175 4.11478 16.6543 3.9693 16.3979 3.98315C15.7744 4.02472 15.1509 4.06629 14.5274 4.10785C14.4858 4.05243 13.8208 3.40121 13.7653 3.35271C13.7861 2.7292 13.8069 2.11262 13.8277 1.48911C13.8346 1.23971 13.6891 0.976445 13.4744 0.858671C12.8024 0.477637 12.0957 0.200521 11.3683 0.020396C11.112 -0.041955 10.8487 0.0411796 10.6824 0.235161L9.44926 1.62767C9.08901 1.60688 8.72876 1.61381 8.37544 1.64845L7.1007 0.276728C6.92751 0.089675 6.66425 0.0134681 6.41484 0.0758191C5.68741 0.276728 4.96691 0.581555 4.31569 0.969517C4.094 1.10808 3.9693 1.35055 3.98315 1.60688L4.10785 3.47741C3.83074 3.71989 3.58133 3.97622 3.35271 4.24641L1.48218 4.18406C1.23278 4.1702 0.983373 4.30876 0.858671 4.53738C0.477637 5.20939 0.200521 5.91603 0.020396 6.64346C-0.041955 6.89287 0.0411796 7.15613 0.235161 7.32932L1.62767 8.56249C1.60688 8.92274 1.61381 9.27606 1.64845 9.63631L0.276728 10.911C0.089675 11.0842 0.0134681 11.3475 0.0758191 11.5969C0.2698 12.3243 0.588483 13.031 0.96259 13.6822C1.09422 13.9108 1.3367 14.0425 1.60688 14.0286L3.47741 13.9039C3.71989 14.181 3.97622 14.4304 4.24641 14.659L4.18406 16.5296C4.17713 16.7859 4.30876 17.0284 4.53738 17.1531C5.18168 17.5203 5.86061 17.7835 6.58111 17.9706C6.83744 18.0398 7.14227 17.9914 7.32932 17.7766L8.56249 16.3841C8.91581 16.3979 9.28299 16.3979 9.63631 16.3633C9.63631 16.3633 10.911 17.735 10.9249 17.7489C11.1189 17.9498 11.396 17.9844 11.6731 17.9082C12.3728 17.7142 13.0518 17.4094 13.6822 17.0422C13.897 16.9245 14.0425 16.6473 14.0286 16.3979C13.987 15.7744 13.9455 15.1509 13.9039 14.5274C14.0563 14.3958 14.1949 14.2572 14.3334 14.1117C14.375 14.0632 14.5898 13.7653 14.659 13.7653C15.2825 13.7861 15.8991 13.8069 16.5226 13.8277C16.7651 13.8415 17.0284 13.6891 17.1531 13.4744C17.5203 12.8231 17.7904 12.1373 17.9706 11.4306C18.0398 11.1674 17.9914 10.8695 17.7766 10.6824ZM9.00587 12.4698C7.09378 12.4698 5.54193 10.918 5.54193 9.00587C5.54193 7.09378 7.09378 5.54193 9.00587 5.54193C10.918 5.54193 12.4698 7.09378 12.4698 9.00587C12.4698 10.918 10.918 12.4698 9.00587 12.4698Z" fill="#1F8FEB"/>
</g>
<defs>
<clipPath id="clip0_813_3613">
<rect width="18" height="18" fill="white"/>
</clipPath>
</defs>
</svg>
