<svg width="18" height="18" viewBox="0 0 18 18" fill="none" xmlns="http://www.w3.org/2000/svg">
<g clip-path="url(#clip0_833_3750)">
<path d="M17.8864 14.4104C17.825 14.7672 17.5478 15.0257 17.179 15.0715C16.8487 15.1126 16.5108 14.9162 16.3752 14.5941C15.8391 13.3152 15.121 12.1205 14.2431 11.0472C13.8501 10.5666 13.4202 10.1203 12.9792 9.6843C12.7851 9.49334 12.5944 9.29727 12.3987 9.10694C12.3667 9.07792 12.3257 9.06064 12.2826 9.05793C12.0888 9.05449 11.8978 9.01024 11.7222 8.92807C11.6672 8.90165 11.6392 8.9147 11.601 8.9529C11.0456 9.51052 10.4893 10.0673 9.93223 10.6232C7.64849 12.9076 5.36464 15.1918 3.08068 17.4758C2.24122 18.3151 0.814969 18.1187 0.235495 17.0862C0.040343 16.7425 -0.0366984 16.3442 0.0161827 15.9525C0.0690639 15.5607 0.248949 15.1971 0.528255 14.9175C2.68344 12.7602 4.83958 10.6035 6.99667 8.44747C7.68063 7.7638 8.36458 7.08003 9.04854 6.39615C9.06706 6.38255 9.07968 6.36239 9.08382 6.33979C9.08796 6.31718 9.08331 6.29385 9.07082 6.27457C8.99058 6.09522 8.94626 5.90188 8.94035 5.70549C8.93954 5.67233 8.92766 5.6404 8.90662 5.61478C8.39047 5.10807 7.88832 4.58705 7.35148 4.10231C6.35992 3.2054 5.2487 2.48163 4.03947 1.91032C3.83168 1.81197 3.62102 1.71935 3.41036 1.62705C3.25137 1.56049 3.11841 1.44391 3.03164 1.29496C2.94487 1.14601 2.90903 0.97283 2.92953 0.80167C2.95004 0.630509 3.02579 0.470704 3.14529 0.346483C3.26479 0.222263 3.42153 0.140401 3.59174 0.113308C4.03406 0.0362847 4.47893 -0.00286384 4.72046 0.000318955C6.21386 0.00318347 7.43581 0.295364 8.60272 0.820844C9.67211 1.30209 10.6509 1.96355 11.4963 2.77636C11.5085 2.78659 11.5225 2.79431 11.5377 2.79907C11.5529 2.80382 11.5689 2.80551 11.5847 2.80405C11.8739 2.75452 12.1712 2.79139 12.4395 2.91003C12.4933 2.93454 12.5241 2.9199 12.5636 2.88521C12.907 2.5836 13.352 2.42345 13.8088 2.43707C14.2656 2.4507 14.7002 2.63707 15.0251 2.95861C15.3499 3.28015 15.5407 3.71293 15.5591 4.16966C15.5774 4.62639 15.4219 5.07309 15.124 5.41967C15.0788 5.47187 15.0746 5.50815 15.1023 5.57085C15.2184 5.82881 15.2533 6.11596 15.2026 6.39424C15.196 6.41652 15.1957 6.44016 15.2017 6.4626C15.2076 6.48504 15.2196 6.50543 15.2363 6.52156C15.9391 7.2552 16.529 8.0893 16.9865 8.9965C17.3754 9.76163 17.6592 10.5758 17.8301 11.417C18.0302 12.4113 18.0586 13.4091 17.8864 14.4104Z" fill="#1F8FEB"/>
</g>
<defs>
<clipPath id="clip0_833_3750">
<rect width="18" height="18" fill="white"/>
</clipPath>
</defs>
</svg>
