<svg width="18" height="18" viewBox="0 0 18 18" fill="none" xmlns="http://www.w3.org/2000/svg">
<g clip-path="url(#clip0_813_3506)">
<path d="M17.1038 14.8239H17.1033C16.9958 14.8238 16.8907 14.7918 16.8014 14.7319C16.7122 14.6722 16.6427 14.5874 16.6017 14.4882M17.1038 14.8239L16.6015 14.4877C16.6015 14.4879 16.6016 14.4881 16.6017 14.4882M17.1038 14.8239C17.1233 14.8238 17.1428 14.8228 17.1621 14.8207L17.1623 14.8207C17.2792 14.8079 17.3888 14.7577 17.4746 14.6774C17.5605 14.5971 17.618 14.4912 17.6385 14.3754L17.6386 14.3752M17.1038 14.8239L17.6386 14.3752M16.6017 14.4882C15.8722 12.7416 14.8071 11.155 13.4668 9.81841M16.6017 14.4882L13.4668 9.81841M17.6386 14.3752C18.1116 11.6955 17.0569 8.70168 14.9117 6.54034C14.9746 6.35709 14.9927 6.16043 14.9632 5.96706C14.9345 5.77941 14.8622 5.60219 14.7531 5.44918L14.8588 5.34347L14.8589 5.34333C15.1505 5.05123 15.3142 4.65531 15.314 4.24257C15.3139 3.82984 15.1498 3.43405 14.858 3.1422C14.5662 2.85034 14.1704 2.68629 13.7576 2.68609C13.3449 2.68589 12.949 2.84956 12.6569 3.14114L12.6567 3.1413L12.5476 3.25039M17.6386 14.3752L12.5476 3.25039M13.4668 9.81841L13.4666 9.81818L12.4483 8.79998C12.2926 8.81717 12.1345 8.80383 11.9831 8.76017C11.8519 8.72233 11.7286 8.66258 11.6182 8.5839L2.90813 17.2939C2.61611 17.586 2.22006 17.75 1.80709 17.75C1.39413 17.75 0.998074 17.586 0.706062 17.2939C0.41405 17.0019 0.25 16.6059 0.25 16.1929C0.25 15.7799 0.414051 15.3839 0.706062 15.0919L9.41689 6.38098C9.33888 6.27045 9.27955 6.14728 9.2418 6.01636L9.48202 5.9471L9.2418 6.01636C9.19827 5.8654 9.18451 5.70789 9.20076 5.55253L8.1819 4.53351L8.18167 4.53327C6.84499 3.19279 5.25824 2.12765 3.51138 1.39823L3.60771 1.16753L3.51275 1.3988C3.40386 1.35408 3.31244 1.2752 3.25226 1.17403C3.19208 1.07287 3.1664 0.954885 3.17909 0.837856C3.19177 0.720828 3.24213 0.611088 3.32259 0.525161C3.40304 0.439234 3.50923 0.381771 3.62518 0.361425L13.4668 9.81841ZM12.5476 3.25039C12.3939 3.14557 12.2178 3.07611 12.0321 3.04819C11.8414 3.01952 11.6476 3.03572 11.4656 3.09442L12.5476 3.25039Z" fill="#274CFF" stroke="#274CFF" stroke-width="0.5"/>
</g>
<defs>
<clipPath id="clip0_813_3506">
<rect width="18" height="18" fill="white"/>
</clipPath>
</defs>
</svg>
